<svg width="90" height="90" viewBox="0 0 90 90" fill="none" xmlns="http://www.w3.org/2000/svg">
<path d="M83.8461 54.6511C78.5086 76.0665 56.8183 89.1436 35.3635 83.8028C13.9479 78.449 0.8919 56.7586 6.22944 35.3431C11.567 13.9276 33.2442 0.850533 54.6467 6.19131C76.1146 11.4666 89.1706 33.2225 83.8461 54.6511Z" fill="#0033AD"/>
<path d="M45.3399 24.6674C45.6135 24.683 45.8855 24.6171 46.1216 24.478C46.3577 24.339 46.5472 24.133 46.6663 23.8862C46.7853 23.6395 46.8284 23.3629 46.7903 23.0916C46.7521 22.8203 46.6343 22.5663 46.4518 22.362C46.2693 22.1576 46.0303 22.0119 45.765 21.9434C45.4997 21.8749 45.2201 21.8866 44.9614 21.9771C44.7028 22.0675 44.4768 22.2326 44.312 22.4515C44.1472 22.6704 44.0511 22.9333 44.0357 23.2069C44.0151 23.5735 44.141 23.9332 44.3855 24.2071C44.6301 24.481 44.9733 24.6465 45.3399 24.6674Z" fill="white"/>
<path d="M57.3881 25.353C57.1726 25.355 56.9615 25.293 56.7813 25.1749C56.54 25.0167 56.3713 24.7692 56.3123 24.4867C56.2533 24.2042 56.3089 23.9099 56.4668 23.6683C56.5846 23.488 56.7533 23.3467 56.9515 23.2623C57.1497 23.1778 57.3685 23.1541 57.5802 23.194C57.7919 23.234 57.987 23.3358 58.1408 23.4867C58.2946 23.6376 58.4002 23.8307 58.4443 24.0415C58.4883 24.2524 58.4688 24.4717 58.3882 24.6714C58.3076 24.8712 58.1696 25.0427 57.9915 25.164C57.8135 25.2853 57.6035 25.3511 57.3881 25.353Z" fill="white"/>
<path d="M33.956 25.2892C34.1471 25.1911 34.305 25.0386 34.4096 24.8509C34.5143 24.6632 34.5611 24.4488 34.5441 24.2346C34.5272 24.0204 34.4472 23.816 34.3144 23.6472C34.1815 23.4783 34.0017 23.3525 33.7975 23.2856C33.5933 23.2188 33.3739 23.2138 33.1668 23.2713C32.9598 23.3289 32.7745 23.4464 32.6341 23.6091C32.4937 23.7718 32.4046 23.9723 32.378 24.1855C32.3514 24.3987 32.3884 24.6151 32.4844 24.8073C32.549 24.9359 32.6384 25.0505 32.7474 25.1445C32.8565 25.2384 32.9831 25.3099 33.1199 25.3547C33.2567 25.3995 33.401 25.4167 33.5445 25.4055C33.688 25.3943 33.8278 25.3548 33.956 25.2892Z" fill="white"/>
<path d="M35.0178 47.2629C34.4232 46.5951 34.118 45.7186 34.1693 44.826L34.1601 44.8278C34.1978 44.1715 34.4268 43.5406 34.819 43.013C35.2111 42.4854 35.7492 42.0841 36.3667 41.8587C36.9843 41.6334 37.6543 41.5938 38.2941 41.7448C38.9339 41.8958 39.5155 42.2309 39.967 42.7086C40.4186 43.1864 40.7204 43.7859 40.8352 44.4332C40.95 45.0805 40.8727 45.7472 40.613 46.3511C40.3532 46.955 39.9223 47.4696 39.3735 47.8314C38.8246 48.1933 38.1818 48.3865 37.5244 48.3872H37.3405C36.4479 48.335 35.6125 47.9306 35.0178 47.2629Z" fill="white"/>
<path d="M21.0035 44.1216C21.1887 44.0124 21.402 43.9605 21.6166 43.9726C21.7594 43.9803 21.8992 44.0162 22.0281 44.0781C22.1569 44.1401 22.2723 44.2269 22.3675 44.3335C22.4627 44.4402 22.5359 44.5646 22.5828 44.6996C22.6298 44.8347 22.6496 44.9777 22.6412 45.1204C22.6289 45.335 22.5532 45.5411 22.4237 45.7127C22.2943 45.8843 22.1169 46.0136 21.9139 46.0844C21.711 46.1552 21.4916 46.1643 21.2835 46.1104C21.0754 46.0566 20.888 45.9423 20.7449 45.7819C20.6017 45.6216 20.5093 45.4224 20.4794 45.2095C20.4494 44.9967 20.4832 44.7797 20.5765 44.5861C20.6698 44.3925 20.8184 44.2308 21.0035 44.1216Z" fill="white"/>
<path d="M38.0778 30.5719C37.9142 30.8613 37.6684 31.0957 37.3716 31.2454C37.1743 31.3449 36.9595 31.4045 36.7392 31.4209C36.5189 31.4373 36.2975 31.4102 36.0878 31.341C35.878 31.2718 35.6839 31.162 35.5166 31.0177C35.3493 30.8735 35.212 30.6977 35.1127 30.5004C34.9632 30.2035 34.9051 29.8689 34.9457 29.5389C34.9863 29.2089 35.1239 28.8984 35.3409 28.6466C35.558 28.3947 35.8449 28.2129 36.1653 28.1241C36.4857 28.0353 36.8252 28.0435 37.1409 28.1476C37.4567 28.2518 37.7345 28.4472 37.9392 28.7092C38.1439 28.9711 38.2663 29.2879 38.291 29.6195C38.3157 29.951 38.2415 30.2825 38.0778 30.5719Z" fill="white"/>
<path d="M25.8769 35.3418C26.1059 35.4924 26.3744 35.5717 26.6484 35.5696C26.9224 35.5675 27.1897 35.4842 27.4163 35.3302C27.643 35.1763 27.8189 34.9585 27.9218 34.7045C28.0246 34.4505 28.0499 34.1717 27.9942 33.9034C27.9386 33.635 27.8047 33.3892 27.6093 33.1971C27.4139 33.0049 27.166 32.875 26.8968 32.8238C26.6276 32.7726 26.3492 32.8024 26.0969 32.9094C25.8447 33.0165 25.6298 33.1959 25.4796 33.4251C25.2784 33.732 25.2072 34.1063 25.2817 34.4657C25.3562 34.825 25.5703 35.1402 25.8769 35.3418Z" fill="white"/>
<path d="M26.9753 43.5901C27.2617 43.4213 27.5918 43.3412 27.9237 43.3599C28.369 43.3855 28.7859 43.5869 29.0829 43.9197C29.3799 44.2525 29.5326 44.6896 29.5075 45.135C29.4884 45.4669 29.3713 45.7857 29.1711 46.0511C28.9709 46.3165 28.6965 46.5166 28.3826 46.626C28.0687 46.7355 27.7294 46.7494 27.4075 46.6661C27.0857 46.5828 26.7958 46.4059 26.5745 46.1578C26.3531 45.9098 26.2103 45.6016 26.1641 45.2724C26.1178 44.9432 26.1702 44.6077 26.3146 44.3082C26.459 44.0088 26.6889 43.7589 26.9753 43.5901Z" fill="white"/>
<path d="M26.0606 54.6633C25.8161 54.7869 25.6138 54.9801 25.4791 55.2186C25.3445 55.4571 25.2836 55.7302 25.3041 56.0033C25.3247 56.2765 25.4257 56.5374 25.5945 56.7531C25.7633 56.9688 25.9922 57.1296 26.2524 57.2152C26.5126 57.3008 26.7923 57.3074 27.0562 57.2341C27.3201 57.1607 27.5563 57.0108 27.735 56.8032C27.9137 56.5957 28.0269 56.3398 28.0602 56.0679C28.0935 55.7961 28.0454 55.5204 27.9221 55.2759C27.8401 55.1133 27.727 54.9686 27.5891 54.8498C27.4511 54.7311 27.2912 54.6407 27.1183 54.5838C26.9454 54.5269 26.763 54.5047 26.5815 54.5183C26.4 54.5319 26.223 54.5812 26.0606 54.6633Z" fill="white"/>
<path d="M33.6986 40.2091C33.3072 40.2126 32.9235 40.0999 32.5961 39.8853C32.3785 39.743 32.1911 39.5591 32.0446 39.3443C31.8982 39.1294 31.7955 38.8878 31.7425 38.6332C31.6896 38.3786 31.6873 38.1161 31.736 37.8606C31.7846 37.6052 31.8831 37.3618 32.0259 37.1445C32.2406 36.8172 32.5475 36.5609 32.9078 36.4079C33.2681 36.255 33.6657 36.2123 34.0503 36.2854C34.4348 36.3584 34.7891 36.5438 35.0683 36.8182C35.3475 37.0925 35.5391 37.4435 35.6188 37.8267C35.6985 38.21 35.6628 38.6082 35.5162 38.9712C35.3696 39.3341 35.1187 39.6455 34.7952 39.8658C34.4716 40.0861 34.09 40.2056 33.6986 40.2091Z" fill="white"/>
<path d="M53.3305 31.113C53.6093 31.2948 53.9357 31.3899 54.2685 31.3863C54.6013 31.3827 54.9256 31.2804 55.2003 31.0925C55.475 30.9046 55.6878 30.6395 55.8119 30.3307C55.9359 30.0219 55.9657 29.6832 55.8973 29.3575C55.8289 29.0317 55.6655 28.7336 55.4277 28.5008C55.1899 28.2679 54.8884 28.1108 54.5613 28.0492C54.2343 27.9877 53.8963 28.0245 53.5901 28.155C53.2839 28.2855 53.0233 28.5038 52.8413 28.7824C52.72 28.9675 52.6365 29.1746 52.5954 29.392C52.5544 29.6094 52.5567 29.8328 52.6021 30.0493C52.6476 30.2658 52.7353 30.4712 52.8603 30.6537C52.9853 30.8363 53.1451 30.9923 53.3305 31.113Z" fill="white"/>
<path d="M53.5954 41.6216C53.154 41.5962 52.7118 41.658 52.2943 41.8035C51.8767 41.949 51.4919 42.1754 51.1618 42.4696C50.4952 43.0638 50.0919 43.8985 50.0407 44.79C49.9894 45.6816 50.2945 46.557 50.8887 47.2236C51.4829 47.8903 52.3176 48.2936 53.2091 48.3448H53.4041C54.0536 48.3445 54.6891 48.1563 55.234 47.8029C55.7789 47.4495 56.21 46.9461 56.4752 46.3532C56.7404 45.7604 56.8285 45.1034 56.7287 44.4617C56.629 43.8199 56.3458 43.2207 55.9131 42.7363C55.6201 42.4059 55.2643 42.1372 54.8664 41.9458C54.4685 41.7544 54.0364 41.6442 53.5954 41.6216Z" fill="white"/>
<path d="M39.7183 41.0064C39.1866 40.6792 38.7568 40.21 38.4774 39.6517C38.2204 39.1386 38.0987 38.5684 38.124 37.9952C38.1492 37.4219 38.3205 36.8646 38.6216 36.3761C38.9227 35.8876 39.3436 35.4841 39.8444 35.204C40.3452 34.9238 40.9092 34.7763 41.483 34.7753C42.106 34.7723 42.7174 34.9428 43.2489 35.2677C43.7804 35.5926 44.211 36.059 44.4924 36.6147C44.7524 37.1283 44.8764 37.6999 44.8526 38.275C44.8289 38.8501 44.6581 39.4095 44.3567 39.8998C44.0553 40.3902 43.6332 40.7951 43.1308 41.0759C42.6283 41.3568 42.0623 41.5042 41.4867 41.504C40.8624 41.506 40.2499 41.3337 39.7183 41.0064Z" fill="white"/>
<path d="M64.873 35.338C65.1175 35.2146 65.32 35.0215 65.4547 34.7831C65.5895 34.5447 65.6506 34.2717 65.6303 33.9986C65.61 33.7255 65.5091 33.4646 65.3405 33.2487C65.172 33.0329 64.9432 32.8719 64.6831 32.7861C64.423 32.7003 64.1434 32.6934 63.8794 32.7665C63.6155 32.8396 63.3792 32.9893 63.2003 33.1966C63.0214 33.404 62.908 33.6597 62.8744 33.9315C62.8408 34.2033 62.8885 34.4789 63.0115 34.7236C63.177 35.0518 63.4661 35.3008 63.8151 35.416C64.1642 35.5312 64.5447 35.5032 64.873 35.338Z" fill="white"/>
<path d="M55.504 37.2031C55.6969 36.8624 55.9864 36.5866 56.336 36.4105C56.5681 36.2934 56.8211 36.2231 57.0803 36.2038C57.3396 36.1845 57.6001 36.2165 57.847 36.298C58.0939 36.3795 58.3223 36.5089 58.5191 36.6788C58.7159 36.8486 58.8773 37.0556 58.9941 37.288C59.1701 37.6376 59.2386 38.0316 59.1908 38.4201C59.1429 38.8086 58.981 39.1742 58.7253 39.4707C58.4697 39.7672 58.1319 39.9812 57.7547 40.0857C57.3774 40.1902 56.9776 40.1805 56.6059 40.0578C56.2342 39.9351 55.9072 39.7049 55.6663 39.3963C55.4254 39.0878 55.2814 38.7147 55.2525 38.3243C55.2236 37.9339 55.3111 37.5437 55.504 37.2031Z" fill="white"/>
<path d="M46.4414 33.1131C46.1043 33.3119 45.7159 33.4063 45.3252 33.3844C44.8008 33.3545 44.3097 33.1176 43.9599 32.7258C43.6102 32.3339 43.4303 31.8192 43.4599 31.2948C43.4824 30.9041 43.6201 30.5288 43.8558 30.2164C44.0915 29.904 44.4145 29.6684 44.784 29.5395C45.1535 29.4106 45.5529 29.3941 45.9318 29.4921C46.3106 29.5902 46.6519 29.7983 46.9125 30.0903C47.1731 30.3822 47.3413 30.7449 47.3959 31.1324C47.4504 31.5199 47.3889 31.9149 47.219 32.2675C47.0491 32.62 46.7785 32.9143 46.4414 33.1131Z" fill="white"/>
<path d="M34.6015 53.5893C34.951 53.4131 35.2405 53.1371 35.4332 52.7964C35.6259 52.4556 35.7133 52.0653 35.6842 51.6749C35.6551 51.2845 35.5109 50.9115 35.2698 50.603C35.0287 50.2946 34.7015 50.0646 34.3297 49.9421C33.9578 49.8196 33.558 49.8101 33.1808 49.9149C32.8036 50.0196 32.4659 50.2339 32.2105 50.5306C31.955 50.8273 31.7933 51.1931 31.7458 51.5817C31.6983 51.9703 31.767 52.3642 31.9434 52.7137C32.1799 53.1822 32.5927 53.5377 33.0912 53.7019C33.5896 53.8661 34.1328 53.8256 34.6015 53.5893Z" fill="white"/>
<path d="M46.0645 38.3908C46.0037 37.6443 46.1935 36.8989 46.604 36.2724C46.9109 35.8047 47.3293 35.4208 47.8216 35.1552C48.3139 34.8896 48.8645 34.7508 49.4239 34.7512C50.1729 34.7521 50.9001 35.0029 51.4906 35.4636C52.081 35.9244 52.5009 36.569 52.6839 37.2953C52.8668 38.0216 52.8022 38.7881 52.5005 39.4736C52.1987 40.1591 51.677 40.7244 51.0178 41.08C50.3586 41.4356 49.5997 41.5612 48.8611 41.437C48.1225 41.3127 47.4465 40.9457 46.9399 40.3939C46.4334 39.8422 46.1253 39.1373 46.0645 38.3908Z" fill="white"/>
<path d="M52.4568 50.3498C52.1871 49.815 51.7796 49.3618 51.2763 49.0371C50.7731 48.7123 50.1923 48.5277 49.5938 48.5023C48.9954 48.4769 48.4011 48.6117 47.8721 48.8927C47.3431 49.1736 46.8987 49.5906 46.5847 50.1007C46.2707 50.6107 46.0984 51.1953 46.0857 51.7942C46.073 52.393 46.2203 52.9843 46.5124 53.5072C46.8046 54.0301 47.2309 54.4656 47.7475 54.7688C48.2641 55.0719 48.8522 55.2317 49.4511 55.2317C49.9781 55.2281 50.4969 55.1022 50.9669 54.8638C51.7617 54.4615 52.3648 53.7606 52.6441 52.9145C52.9233 52.0685 52.856 51.1463 52.4568 50.3498Z" fill="white"/>
<path d="M57.2373 49.7898C57.6287 49.7866 58.0123 49.8995 58.3396 50.1144C58.7776 50.4031 59.0834 50.8536 59.1899 51.3674C59.2965 51.8811 59.1951 52.4161 58.908 52.8552C58.6932 53.1824 58.3861 53.4386 58.0257 53.5913C57.6652 53.7441 57.2676 53.7865 56.8831 53.7133C56.4985 53.64 56.1443 53.4544 55.8653 53.1798C55.5862 52.9053 55.3949 52.5542 55.3154 52.1709C55.2359 51.7876 55.2719 51.3893 55.4187 51.0264C55.5656 50.6636 55.8167 50.3524 56.1404 50.1323C56.4641 49.9121 56.8459 49.7929 57.2373 49.7898Z" fill="white"/>
<path d="M64.7852 45.0577C64.8039 44.7257 64.7238 44.3957 64.555 44.1093C64.3863 43.8229 64.1363 43.593 63.8369 43.4486C63.5374 43.3041 63.2019 43.2518 62.8727 43.298C62.5435 43.3443 62.2354 43.4871 61.9873 43.7084C61.7392 43.9298 61.5624 44.2197 61.479 44.5415C61.3957 44.8633 61.4096 45.2026 61.5191 45.5165C61.6286 45.8305 61.8287 46.1049 62.094 46.3051C62.3594 46.5053 62.6782 46.6224 63.0101 46.6414C63.4555 46.6665 63.8926 46.5138 64.2254 46.2169C64.5583 45.9199 64.7596 45.503 64.7852 45.0577Z" fill="white"/>
<path d="M68.8279 44.0087C69.0136 43.8995 69.2275 43.8479 69.4425 43.8602C69.7306 43.8773 70.0002 44.0079 70.1923 44.2234C70.3843 44.4389 70.4831 44.7217 70.4671 45.0099C70.4547 45.2249 70.3788 45.4315 70.2491 45.6034C70.1194 45.7753 69.9416 45.9049 69.7382 45.9757C69.5348 46.0466 69.3149 46.0556 69.1065 46.0015C68.898 45.9474 68.7102 45.8327 68.5669 45.6719C68.4236 45.5111 68.3312 45.3114 68.3014 45.0981C68.2716 44.8848 68.3057 44.6675 68.3994 44.4736C68.4931 44.2796 68.6423 44.1179 68.8279 44.0087Z" fill="white"/>
<path d="M65.0575 54.6581C64.8284 54.508 64.5599 54.4293 64.286 54.4317C64.0122 54.4342 63.7452 54.5179 63.5188 54.6721C63.2924 54.8263 63.1169 55.0442 63.0143 55.2981C62.9117 55.5521 62.8868 55.8308 62.9426 56.0989C62.9983 56.3671 63.1324 56.6127 63.3277 56.8047C63.5231 56.9967 63.771 57.1264 64.0401 57.1776C64.3092 57.2287 64.5874 57.1989 64.8395 57.0919C65.0917 56.985 65.3065 56.8057 65.4567 56.5767C65.5565 56.4245 65.6254 56.2542 65.6594 56.0754C65.6934 55.8966 65.6918 55.7128 65.6547 55.5347C65.6176 55.3565 65.5458 55.1874 65.4434 55.037C65.3409 54.8866 65.2098 54.7578 65.0575 54.6581Z" fill="white"/>
<path d="M33.548 64.6463C33.7634 64.6445 33.9744 64.7066 34.1545 64.8248C34.2741 64.9032 34.3771 65.0045 34.4575 65.1228C34.5379 65.2411 34.5943 65.3741 34.6233 65.5141C34.6524 65.6542 34.6535 65.7986 34.6267 65.9392C34.6 66.0797 34.5457 66.2136 34.4672 66.3331C34.3489 66.5131 34.18 66.654 33.9817 66.738C33.7834 66.8219 33.5646 66.8452 33.3531 66.8049C33.1416 66.7646 32.9467 66.6624 32.7932 66.5114C32.6397 66.3603 32.5345 66.1671 32.4908 65.9563C32.4471 65.7454 32.4668 65.5263 32.5476 65.3267C32.6284 65.1271 32.7666 64.9559 32.9447 64.8348C33.1227 64.7136 33.3327 64.6481 33.548 64.6463Z" fill="white"/>
<path d="M56.9784 64.7108C56.7861 64.8077 56.6268 64.9595 56.5207 65.147C56.4147 65.3345 56.3666 65.5492 56.3826 65.764C56.3985 65.9788 56.4779 66.184 56.6105 66.3537C56.7431 66.5235 56.9231 66.65 57.1277 66.7174C57.3323 66.7849 57.5522 66.7901 57.7598 66.7325C57.9673 66.6749 58.1531 66.557 58.2937 66.3938C58.4342 66.2306 58.5232 66.0294 58.5494 65.8156C58.5756 65.6018 58.5378 65.385 58.4408 65.1927C58.3766 65.0649 58.2878 64.951 58.1794 64.8576C58.0711 64.7641 57.9455 64.693 57.8096 64.6482C57.6738 64.6035 57.5304 64.5859 57.3878 64.5967C57.2451 64.6074 57.106 64.6462 56.9784 64.7108Z" fill="white"/>
<path d="M44.8698 51.6031C44.9307 52.3497 44.7409 53.0953 44.3303 53.7218C44.025 54.1905 43.6071 54.5753 43.1149 54.841C42.6226 55.1067 42.0717 55.2449 41.5123 55.243C40.7632 55.2425 40.0358 54.9921 39.445 54.5315C38.8543 54.071 38.4341 53.4265 38.2508 52.7002C38.0676 51.9739 38.1318 51.2073 38.4334 50.5216C38.735 49.8359 39.2566 49.2704 39.9157 48.9146C40.5749 48.5588 41.3339 48.433 42.0726 48.5571C42.8113 48.6812 43.4875 49.0482 43.9941 49.5999C44.5008 50.1516 44.8089 50.8565 44.8698 51.6031Z" fill="white"/>
<path d="M37.6032 58.8889C37.325 58.7069 36.9991 58.6115 36.6666 58.6147C36.3342 58.6179 36.0102 58.7195 35.7355 58.9069C35.4608 59.0942 35.2479 59.3587 35.1235 59.667C34.9992 59.9754 34.9691 60.3136 35.0369 60.6391C35.1048 60.9645 35.2676 61.2626 35.5048 61.4955C35.742 61.7284 36.043 61.8858 36.3696 61.9477C36.6963 62.0096 37.0339 61.9733 37.3399 61.8434C37.6459 61.7134 37.9065 61.4957 38.0888 61.2177C38.333 60.8444 38.419 60.3895 38.3279 59.9528C38.2368 59.5162 37.9762 59.1335 37.6032 58.8889Z" fill="white"/>
<path d="M44.6707 65.5217C44.9068 65.3827 45.1787 65.3169 45.4522 65.3324C45.6339 65.3427 45.8117 65.3888 45.9756 65.4679C46.1395 65.547 46.2862 65.6576 46.4073 65.7934C46.5284 65.9292 46.6216 66.0875 46.6815 66.2593C46.7414 66.4312 46.7668 66.6131 46.7564 66.7948C46.7407 67.0682 46.6442 67.3309 46.4792 67.5496C46.3142 67.7682 46.0881 67.933 45.8295 68.0232C45.5708 68.1134 45.2913 68.1248 45.0261 68.0561C44.761 67.9874 44.5221 67.8416 44.3398 67.6372C44.1575 67.4328 44.0399 67.1789 44.0019 66.9076C43.9638 66.6364 44.0071 66.3599 44.1261 66.1132C44.2452 65.8665 44.4347 65.6607 44.6707 65.5217Z" fill="white"/>
<path d="M45.4666 56.6168C45.0755 56.5931 44.6862 56.6859 44.3479 56.8836C44.0097 57.0813 43.7377 57.3749 43.5664 57.7273C43.3951 58.0797 43.3323 58.4749 43.3859 58.8631C43.4395 59.2512 43.607 59.6147 43.8673 59.9075C44.1276 60.2003 44.469 60.4093 44.8482 60.5079C45.2273 60.6066 45.6273 60.5905 45.9973 60.4617C46.3673 60.3329 46.6908 60.0971 46.9267 59.7844C47.1626 59.4716 47.3004 59.0958 47.3226 58.7046C47.3528 58.1818 47.1743 57.6683 46.8264 57.2769C46.4784 56.8855 45.9894 56.6481 45.4666 56.6168Z" fill="white"/>
<path d="M52.8565 59.4309C53.0196 59.1405 53.2652 58.9051 53.5622 58.7544C53.759 58.6541 53.9735 58.5935 54.1937 58.5761C54.4138 58.5588 54.6352 58.5851 54.8452 58.6534C55.0552 58.7218 55.2496 58.8309 55.4174 58.9744C55.5852 59.118 55.723 59.2933 55.8229 59.4902C55.9744 59.7868 56.0344 60.1217 55.9953 60.4525C55.9563 60.7833 55.8201 61.095 55.6038 61.3483C55.3875 61.6016 55.1009 61.785 54.7804 61.8754C54.4598 61.9657 54.1196 61.9589 53.8029 61.8558C53.4862 61.7527 53.2072 61.558 53.0012 61.2963C52.7952 61.0346 52.6715 60.7176 52.6458 60.3856C52.62 60.0535 52.6933 59.7213 52.8565 59.4309Z" fill="white"/>
</svg>
