<svg width="90" height="90" viewBox="0 0 90 90" fill="none" xmlns="http://www.w3.org/2000/svg">
<path d="M83.8461 54.6511C78.5086 76.0665 56.8183 89.1436 35.3635 83.8028C13.9479 78.449 0.8919 56.7586 6.22944 35.3431C11.567 13.9276 33.2442 0.850533 54.6467 6.19131C76.1146 11.4666 89.1706 33.2225 83.8461 54.6511Z" fill="#E84142"/>
<path d="M25.8242 61.4758H33.5869C35.4149 61.4758 36.3287 61.4758 37.1442 61.2498C38.0385 60.9845 38.854 60.5129 39.5319 59.8643C40.1548 59.2707 40.6042 58.4843 41.491 56.9325L41.5171 56.8869L51.5852 39.0892C52.4794 37.5268 52.9216 36.7406 53.1182 35.9151C53.3343 35.0209 53.3343 34.0776 53.1182 33.1834C52.9233 32.3648 52.4768 31.5848 51.597 30.0476L51.5955 30.0446L51.5753 30.0095L47.635 23.131C46.8194 21.6963 46.4067 20.979 45.8858 20.7137C45.3257 20.4288 44.6575 20.4288 44.0975 20.7137C43.5766 20.979 43.1638 21.6963 42.3483 23.131L23.1807 56.9163C22.3749 58.3313 21.972 59.0389 22.0015 59.6186C22.0409 60.2475 22.3652 60.8174 22.8958 61.1614C23.3872 61.4758 24.1929 61.4758 25.8242 61.4758Z" fill="white"/>
<path d="M64.3143 61.4767H53.1909C51.5497 61.4767 50.7245 61.4767 50.2429 61.1623C49.7123 60.8184 49.388 60.2386 49.3486 59.6097C49.3194 59.0344 49.7256 58.3333 50.5383 56.9304L50.5573 56.8975L56.1092 47.3659C56.9249 45.9608 57.3377 45.263 57.8487 44.9978C58.4087 44.7128 59.067 44.7128 59.6271 44.9978C60.1345 45.2562 60.5298 45.9248 61.3127 47.2489L61.3763 47.3561L66.9479 56.8878L67.0283 57.0264C67.8006 58.359 68.1947 59.0392 68.1665 59.5999C68.1368 60.2287 67.8028 60.8085 67.2722 61.1525C66.7808 61.4767 65.9553 61.4767 64.3143 61.4767Z" fill="white"/>
</svg>
