<svg width="90" height="90" viewBox="0 0 90 90" fill="none" xmlns="http://www.w3.org/2000/svg">
<path d="M83.8461 54.6511C78.5086 76.0665 56.8183 89.1436 35.3635 83.8028C13.9479 78.449 0.8919 56.7586 6.22944 35.3431C11.567 13.9276 33.2442 0.850533 54.6467 6.19131C76.1146 11.4666 89.1706 33.2225 83.8461 54.6511Z" fill="#F0B90B"/>
<path d="M60.3368 43.0426L60.3058 36.3844H60.33L54.6747 33.0554L44.984 38.7692L35.3519 33.0554L29.7001 36.3844V43.0426L39.3908 48.7288V60.129L45.0185 63.427L50.6461 60.129V48.7288L60.3368 43.0426Z" fill="white"/>
<path d="M44.9875 16L29.6967 25.0153L35.3243 28.3444L44.9875 22.6305L54.6782 28.3444L60.3058 25.0153L44.9875 16Z" fill="white"/>
<path d="M25.6587 56.7723L25.6277 45.3997L20.0034 42.0741V60.1323L35.3218 69.1167V62.4585L25.6587 56.7723Z" fill="white"/>
<path d="M25.6277 40.6543V34.0271L31.2829 30.6981L25.6277 27.369L20 30.6981V37.3252L25.6277 40.6543Z" fill="white"/>
<path d="M44.985 27.369L39.3573 30.6981L44.985 34.0271L50.6402 30.6981L44.985 27.369Z" fill="white"/>
<path d="M35.3243 51.086L29.6967 47.7569V54.415L35.3243 57.7131V51.086Z" fill="white"/>
<path d="M44.9875 68.1724L39.3598 64.8433V71.4704L44.9875 74.7995L50.6427 71.4704V64.8433L44.9875 68.1724Z" fill="white"/>
<path d="M64.3413 27.369L58.7137 30.6981L64.3413 34.0272V40.6543L69.9966 37.3252V30.6981L64.3413 27.369Z" fill="white"/>
<path d="M70 42.0707L64.3723 45.3997L64.3413 56.7723L54.6816 62.4551V69.1132L70 60.1289V42.0707Z" fill="white"/>
<path d="M60.3071 54.4148L54.6794 57.7129V51.0858L60.3071 47.7567V54.4148Z" fill="white"/>
</svg>
