<svg width="90" height="90" viewBox="0 0 90 90" fill="none" xmlns="http://www.w3.org/2000/svg">
<path d="M83.811 54.654C78.4734 76.0695 56.7832 89.1465 35.3283 83.8058C13.9128 78.4519 0.856743 56.7615 6.19428 35.346C11.5318 13.9305 33.209 0.853463 54.6115 6.19424C76.0794 11.4696 89.1354 33.2254 83.811 54.654Z" fill="#F7931A"/>
<path d="M63.9415 39.7456C64.6604 34.4123 60.6081 31.628 55.0526 29.7456L56.7781 22.5299L52.3859 21.4711L50.7127 28.5299C49.5493 28.2554 48.3728 27.9809 47.2094 27.7456L48.8827 20.6868L44.4382 19.6279L42.7127 26.8436C41.7715 26.6214 40.8173 26.4515 39.8761 26.2292L33.8238 24.7783L32.7127 29.4449C32.7127 29.4449 35.9938 30.1639 35.8761 30.2293C37.6539 30.6737 37.9938 31.8371 37.9284 32.726L35.9807 40.9482C36.0983 41.0005 36.2552 41.0005 36.4251 41.1182C36.2552 41.0659 36.1506 41.0659 35.9807 41.0136L33.314 52.5169C33.0918 53.0659 32.5297 53.8502 31.314 53.5757C31.3663 53.628 28.0853 52.7914 28.0853 52.7914L26.0068 57.8502L31.7323 59.1836C32.7911 59.4581 33.85 59.6803 34.8434 59.9679L33.1179 67.2489L37.5101 68.3078L39.2356 61.0921C40.4644 61.4189 41.6278 61.7064 42.7389 61.9809L41.0134 69.1444L45.4055 70.2032L47.131 62.9221C54.6343 64.2555 60.2421 63.6411 62.5166 56.8045C64.3467 51.3535 62.3467 48.2424 58.3467 46.1901C61.2748 45.5234 63.3925 43.628 63.9415 39.7456ZM54.0591 53.9025C52.7781 59.3535 43.5624 56.5169 40.6081 55.7979L42.8827 46.1247C45.8892 46.8567 55.3925 48.1901 54.0591 53.9025ZM55.2748 39.7456C54.1114 44.6868 46.4382 42.3077 43.9415 41.6933L46.0591 32.9221C48.5036 33.5234 56.5036 34.5822 55.2748 39.7456Z" fill="white"/>
</svg>
