<svg width="90" height="90" viewBox="0 0 90 90" fill="none" xmlns="http://www.w3.org/2000/svg">
<path d="M83.8461 54.6511C78.5086 76.0665 56.8183 89.1436 35.3635 83.8028C13.9479 78.449 0.8919 56.7586 6.22944 35.3431C11.567 13.9276 33.2442 0.850533 54.6467 6.19131C76.1146 11.4666 89.1706 33.2225 83.8461 54.6511Z" fill="#ECEFF0"/>
<path d="M45.5013 54.7002C45.3459 54.753 45.2573 54.6178 45.1517 54.5556C39.9714 51.4983 34.7969 48.4388 29.6281 45.3773C29.578 45.352 29.526 45.3307 29.4727 45.3136V45.2452L29.5644 45.1924C29.6945 45.1582 29.8227 45.1167 29.9482 45.068L42.1554 39.5138C43.2433 39.0181 44.3311 38.5301 45.419 38.039H45.4967C45.4967 38.1944 45.4967 38.3327 45.4967 38.4804C45.5008 43.8875 45.5024 49.2941 45.5013 54.7002Z" fill="#343535"/>
<path d="M45.509 38.0428H45.4313C45.4313 37.8874 45.4469 37.732 45.4469 37.5688C45.4469 31.4955 45.4469 25.4217 45.4469 19.3473C45.429 19.1913 45.4396 19.0334 45.478 18.8811H45.5106C46.1493 19.8244 46.7057 20.819 47.2931 21.7934C51.947 29.513 56.5984 37.2315 61.2471 44.949C61.2922 45.0252 61.3279 45.1045 61.3683 45.1884C61.2367 45.1602 61.1073 45.1223 60.9814 45.0749C60.1282 44.6895 59.2719 44.2979 58.4265 43.9047C57.1024 43.2986 55.7778 42.6936 54.4527 42.0896L48.0686 39.1974C47.2185 38.8058 46.3638 38.4251 45.509 38.0428Z" fill="#2F3030"/>
<path d="M45.4831 18.8731C45.4447 19.0253 45.4341 19.1833 45.452 19.3393C45.452 25.4126 45.452 31.4864 45.452 37.5607C45.452 37.7161 45.4427 37.8716 45.4365 38.0347C44.3486 38.5258 43.2608 39.0138 42.1729 39.5095L29.9657 45.0638C29.8402 45.1124 29.712 45.1539 29.5818 45.1881C29.9346 44.4546 30.3931 43.7894 30.8111 43.087C35.6546 35.0359 40.5018 26.9864 45.3525 18.9384C45.3846 18.8938 45.4194 18.8512 45.4567 18.8109L45.4831 18.8731Z" fill="#828384"/>
<path d="M45.509 38.0428C46.3638 38.4251 47.2188 38.806 48.072 39.1914L54.4561 42.0835C55.7822 42.6865 57.1068 43.2915 58.4298 43.8986C59.2815 44.2887 60.1393 44.6834 60.9847 45.0688C61.1107 45.1162 61.2401 45.1542 61.3717 45.1823C61.5271 45.3766 61.2971 45.3843 61.2272 45.4263C59.9016 46.2189 58.5697 47.0005 57.241 47.7869C53.4273 50.0434 49.6146 52.2994 45.803 54.5549C45.7067 54.6108 45.6023 54.652 45.5013 54.7002C45.5013 49.2951 45.5015 43.8903 45.5015 38.4843C45.5031 38.3366 45.5075 38.1904 45.509 38.0428Z" fill="#131313"/>
<path d="M45.4467 57.7705L55.4316 51.8852C57.3379 50.7601 59.2432 49.6339 61.1475 48.5067L61.32 48.4119C61.3371 48.5673 61.2299 48.6497 61.1646 48.7398C56.8132 54.8742 52.4618 61.0066 48.1104 67.1369C47.2867 68.2993 46.4646 69.468 45.6332 70.6211C45.5897 70.6817 45.5229 70.9661 45.3892 70.6646C45.4949 70.5745 45.4483 70.4532 45.4483 70.3538C45.4493 66.1578 45.4488 61.9634 45.4467 57.7705Z" fill="#2F3030"/>
<path d="M45.4459 57.7713C45.4459 61.9641 45.4459 66.156 45.4459 70.3468C45.4459 70.454 45.4925 70.5752 45.3868 70.6576C45.1646 70.524 45.0682 70.2846 44.9206 70.0873C39.875 62.98 34.8321 55.8717 29.7917 48.7623C29.728 48.6722 29.669 48.5759 29.6037 48.4764C29.7342 48.4002 29.8042 48.5044 29.8803 48.5494C34.9828 51.5623 40.0843 54.5777 45.1848 57.5957C45.2796 57.6547 45.3604 57.7153 45.4459 57.7713Z" fill="#828384"/>
<path d="M45.4842 18.873L45.4469 18.8155C45.5153 18.772 45.506 18.8357 45.5169 18.8683L45.4842 18.873Z" fill="#393939"/>
</svg>
