<svg width="90" height="90" viewBox="0 0 90 90" fill="none" xmlns="http://www.w3.org/2000/svg">
<path d="M83.8461 54.6511C78.5086 76.0665 56.8183 89.1436 35.3635 83.8028C13.9479 78.449 0.8919 56.7586 6.22944 35.3431C11.567 13.9276 33.2442 0.850533 54.6467 6.19131C76.1146 11.4666 89.1706 33.2225 83.8461 54.6511Z" fill="#262C32"/>
<path d="M62.9469 24.1104H70.1661L55.126 39.3176C49.6781 44.8323 40.8546 44.8323 35.4068 39.3176L20.3666 24.1104H27.5859L39.0164 35.6745C42.392 39.1171 47.9736 39.1505 51.4161 35.7748C51.4495 35.7414 51.483 35.708 51.5164 35.6745L62.9469 24.1104ZM27.5191 66.3898H20.2998L35.4402 51.0823C40.888 45.5676 49.7116 45.5676 55.1594 51.0823L70.2998 66.3898H63.0806L51.5832 54.7588C48.2076 51.3163 42.626 51.2828 39.1835 54.6585C39.1501 54.6919 39.1166 54.7254 39.0832 54.7588L27.5191 66.3898Z" fill="white"/>
</svg>
